HIERARCHY
ROOT Hips
{
	OFFSET 0.000000 0.000000 0.000000
	CHANNELS 6 Xposition Yposition Zposition Xrotation Yrotation Zrotation
	JOINT LeftUpLeg_virtual
	{
		OFFSET 0.000000 0.000000 0.000000
		CHANNELS 3 Xrotation Yrotation Zrotation
		JOINT LeftUpLeg
		{
			OFFSET 10.205400 -3.823500 0.155100
			CHANNELS 3 Xrotation Yrotation Zrotation
			JOINT LeftLeg
			{
				OFFSET 0.708757 -12.982077 0.567790
				CHANNELS 3 Xrotation Yrotation Zrotation
				JOINT LeftFoot
				{
					OFFSET -0.708756 -10.717838 -2.184338
					CHANNELS 3 Xrotation Yrotation Zrotation
					JOINT LeftToeBase
					{
						OFFSET 0.108149 -7.191104 7.560241
						CHANNELS 3 Xrotation Yrotation Zrotation
						JOINT LeftToe_End
						{
							OFFSET 0.070230 0.081724 4.490308
							CHANNELS 3 Xrotation Yrotation Zrotation
							End Site
							{
								OFFSET 0 0 0
							}
						}
					}
				}
			}
		}
	}
	JOINT RightUpLeg_virtual
	{
		OFFSET 0.000000 0.000000 0.000000
		CHANNELS 3 Xrotation Yrotation Zrotation
		JOINT RightUpLeg
		{
			OFFSET -10.205400 -3.823500 0.005500
			CHANNELS 3 Xrotation Yrotation Zrotation
			JOINT RightLeg
			{
				OFFSET -0.708756 -12.982134 0.610632
				CHANNELS 3 Xrotation Yrotation Zrotation
				JOINT RightFoot
				{
					OFFSET 0.708754 -10.717769 -1.945823
					CHANNELS 3 Xrotation Yrotation Zrotation
					JOINT RightToeBase
					{
						OFFSET -0.108140 -7.191069 7.372968
						CHANNELS 3 Xrotation Yrotation Zrotation
						JOINT RightToe_End
						{
							OFFSET -0.070227 0.081735 4.479403
							CHANNELS 3 Xrotation Yrotation Zrotation
							End Site
							{
								OFFSET 0 0 0
							}
						}
					}
				}
			}
		}
	}
	JOINT Spine_virtual
	{
		OFFSET 0.000000 0.000000 0.000000
		CHANNELS 3 Xrotation Yrotation Zrotation
		JOINT Spine
		{
			OFFSET 0.000000 6.876099 0.125700
			CHANNELS 3 Xrotation Yrotation Zrotation
			JOINT Spine1
			{
				OFFSET 0.000000 5.730043 0.104720
				CHANNELS 3 Xrotation Yrotation Zrotation
				JOINT Spine1_split
				{
					OFFSET 0.000000 5.730043 0.104720
					CHANNELS 3 Xrotation Yrotation Zrotation
					JOINT Spine2
					{
						OFFSET 0.000000 5.730043 0.104720
						CHANNELS 3 Xrotation Yrotation Zrotation
						JOINT Neck_virtual
						{
							OFFSET 0.000000 0.000000 0.000000
							CHANNELS 3 Xrotation Yrotation Zrotation
							JOINT Neck
							{
								OFFSET 0.000000 10.314075 0.188496
								CHANNELS 3 Xrotation Yrotation Zrotation
								JOINT Head
								{
									OFFSET 0.000000 7.643700 -2.377400
									CHANNELS 3 Xrotation Yrotation Zrotation
									JOINT HeadTop_End
									{
										OFFSET 0.000000 43.788605 -13.619600
										CHANNELS 3 Xrotation Yrotation Zrotation
										End Site
										{
											OFFSET 0 0 0
										}
									}
								}
							}
						}
						JOINT LeftShoulder_virtual
						{
							OFFSET 0.000000 0.000000 0.000000
							CHANNELS 3 Xrotation Yrotation Zrotation
							JOINT LeftShoulder
							{
								OFFSET 2.196100 4.412489 0.087492
								CHANNELS 3 Xrotation Yrotation Zrotation
								JOINT LeftShoulder_split
								{
									OFFSET 2.196100 4.412489 0.087492
									CHANNELS 3 Xrotation Yrotation Zrotation
									JOINT LeftArm
									{
										OFFSET 8.771219 -2.981674 -0.026999
										CHANNELS 3 Xrotation Yrotation Zrotation
										JOINT LeftForeArm
										{
											OFFSET 8.512804 0.000000 -0.000000
											CHANNELS 3 Xrotation Yrotation Zrotation
											JOINT LeftHand
											{
												OFFSET 18.484802 0.000000 -0.000000
												CHANNELS 3 Xrotation Yrotation Zrotation
												End Site
												{
													OFFSET 0 0 0
												}
											}
										}
									}
								}
							}
						}
						JOINT RightShoulder_virtual
						{
							OFFSET 0.000000 0.000000 0.000000
							CHANNELS 3 Xrotation Yrotation Zrotation
							JOINT RightShoulder
							{
								OFFSET -2.196100 4.412496 0.070690
								CHANNELS 3 Xrotation Yrotation Zrotation
								JOINT RightShoulder_split
								{
									OFFSET -2.196100 4.412496 0.070690
									CHANNELS 3 Xrotation Yrotation Zrotation
									JOINT RightArm
									{
										OFFSET -8.771282 -2.981682 -0.094208
										CHANNELS 3 Xrotation Yrotation Zrotation
										JOINT RightForeArm
										{
											OFFSET -8.494598 0.000000 0.000000
											CHANNELS 3 Xrotation Yrotation Zrotation
											JOINT RightHand
											{
												OFFSET -18.483803 0.000000 0.000001
												CHANNELS 3 Xrotation Yrotation Zrotation
												End Site
												{
													OFFSET 0 0 0
												}
											}
										}
									}
								}
							}
						}
					}
				}
			}
		}
	}
}
MOTION
Frames: 8
Frame Time: 0.03333333
-0.864365 24.382395 -37.522469 0.000000 0.000000 0.000000 21.490866 -51.479569 16.405025 -74.136717 -21.509328 19.417260 55.867522 -9.888558 3.573719 24.095435 2.390111 -22.430676 -4.006584 0.154007 2.351865 0.000000 0.000000 0.000000 21.287263 -52.046994 16.137027 -12.641155 -12.399618 -34.970705 47.128903 18.918482 -8.717047 -19.269219 -48.397727 55.891575 9.353379 15.269448 -13.963710 0.000000 0.000000 0.000000 22.283941 -40.146520 12.380711 4.158062 1.045062 -6.821421 8.700070 3.742574 0.873553 0.119531 -0.416776 0.178294 0.000000 0.000000 0.000000 7.544487 7.562367 0.710203 -3.417304 35.932300 18.949981 -77.589836 -72.577160 -97.349225 0.000000 0.000000 0.000000 15.688936 2.182832 2.476230 0.678134 -5.088102 -13.604000 -17.371579 3.485675 2.318667 -52.715649 -49.434737 -42.112040 120.303605 -76.683442 112.972340 0.000000 0.000000 0.000000 11.363210 4.208312 0.022513 -18.028515 8.151571 2.560635 -38.951541 -22.074751 2.523919 -47.811488 63.164435 65.090958 -58.822873 61.719584 98.312561 0.000000 0.000000 0.000000 
-0.593217 24.867865 -40.277023 0.000000 0.000000 0.000000 20.937318 -53.448525 16.857074 -72.758331 -20.783451 19.035029 53.216326 -7.866398 3.601212 26.201000 3.060822 -21.766618 -2.890893 0.161894 0.647187 0.000000 0.000000 0.000000 20.782468 -52.714253 16.155230 -15.667091 -13.638534 -32.225495 51.432561 17.612792 -7.975947 -26.590136 -48.123215 45.987493 10.304624 14.530797 -13.707975 0.000000 0.000000 0.000000 21.335814 -41.532116 12.161064 5.239285 0.246424 -6.287346 8.846473 3.265675 0.879674 0.121020 -0.159573 0.189570 0.000000 0.000000 0.000000 7.248408 7.159346 0.677031 -4.700573 35.718508 19.244586 -74.504489 -73.147808 -96.134933 0.000000 0.000000 0.000000 15.880748 1.704163 2.731818 0.645132 -5.459716 -13.299291 -16.889209 4.212520 2.076261 -51.440982 -49.116293 -41.411686 124.574973 -75.808311 117.426566 0.000000 0.000000 0.000000 11.090166 3.722364 0.042665 -17.956368 8.284879 2.772480 -38.196337 -21.694981 2.014010 -46.911720 63.380119 64.177427 -60.515476 62.115578 100.440862 0.000000 0.000000 0.000000 
-0.305894 25.398136 -42.773956 0.000000 0.000000 0.000000 19.688509 -53.107405 16.039308 -72.584113 -19.470549 17.669238 51.375518 -6.793948 3.531058 26.813197 2.184653 -21.891460 -4.103535 0.192292 -0.784065 0.000000 0.000000 0.000000 19.799653 -52.320270 15.598856 -17.605328 -15.462819 -28.481134 53.887293 16.235361 -6.929760 -32.994834 -46.792089 36.222733 10.762782 13.453503 -12.916634 0.000000 0.000000 0.000000 21.275288 -42.200057 11.876462 6.097243 -0.500106 -5.520927 8.998477 2.678860 0.935898 0.141958 -0.005429 0.218970 0.000000 0.000000 0.000000 7.096677 6.627518 0.738711 -5.783743 35.608016 19.510061 -66.506105 -73.538803 -90.165245 0.000000 0.000000 0.000000 16.027855 1.119726 2.919050 0.616582 -6.128695 -12.842710 -16.930895 4.954318 1.878499 -50.199995 -48.699013 -40.397625 127.979700 -75.149593 120.918732 0.000000 0.000000 0.000000 10.783521 3.133871 0.111241 -17.909022 8.164729 2.956831 -37.614596 -21.455899 1.589476 -47.148485 64.040011 63.819730 -59.210275 62.021704 99.631484 0.000000 0.000000 0.000000 
0.022811 25.897272 -44.828453 0.000000 0.000000 0.000000 18.580097 -51.132084 14.795616 -73.331261 -17.582507 15.595916 50.339498 -6.765232 3.527115 26.432637 -0.085357 -22.930511 -7.123538 0.277098 -1.577471 0.000000 0.000000 0.000000 18.742087 -51.468805 14.829994 -18.909751 -17.377343 -24.833402 54.652264 15.249828 -5.935866 -35.450253 -44.624064 30.320719 9.251087 12.297453 -12.062743 0.000000 0.000000 0.000000 22.070827 -42.243914 11.829245 6.610421 -1.041257 -4.666833 9.130115 2.156264 0.971446 0.128070 0.019078 0.220608 0.000000 0.000000 0.000000 7.038483 6.142980 0.828269 -6.574657 35.580364 19.695465 -55.440857 -73.403647 -80.988278 0.000000 0.000000 0.000000 16.057624 0.600163 2.968931 0.604571 -6.932300 -12.333231 -17.311895 5.646992 1.707907 -49.224306 -47.972486 -39.278359 131.240541 -74.648777 124.144576 0.000000 0.000000 0.000000 10.509440 2.622204 0.172043 -17.914428 7.745607 3.064528 -37.168943 -21.445018 1.461266 -48.179335 65.355416 64.108989 -56.109598 61.571020 97.059413 0.000000 0.000000 0.000000 
0.440964 26.352495 -46.418777 0.000000 0.000000 0.000000 18.353673 -48.848270 13.889621 -74.513908 -15.353263 13.391762 50.078343 -7.695822 3.901574 25.785349 -3.107318 -24.790566 -10.588083 0.368351 -1.578512 0.000000 0.000000 0.000000 18.160908 -50.970430 14.317230 -19.981715 -19.030746 -22.006494 54.051259 14.736521 -5.234404 -35.354285 -42.426311 28.070869 7.104968 11.000360 -11.781526 0.000000 0.000000 0.000000 23.458761 -42.028807 12.177502 6.840300 -1.290418 -3.844822 9.278870 1.838098 0.940925 0.118848 -0.075081 0.244953 0.000000 0.000000 0.000000 7.040411 5.816786 0.879134 -7.204606 35.589978 19.884786 -43.927617 -72.490150 -71.143401 0.000000 0.000000 0.000000 15.944983 0.253173 2.840696 0.587647 -7.687211 -11.884574 -17.891423 6.206592 1.721679 -48.637593 -46.895652 -38.260370 134.395652 -74.284277 127.160227 0.000000 0.000000 0.000000 10.310063 2.317255 0.205613 -17.952971 7.006654 3.052145 -36.904813 -21.548337 1.710635 -49.587245 67.247659 64.946104 -52.939522 60.930075 94.420597 0.000000 0.000000 0.000000 
0.866772 26.665409 -47.487717 0.000000 0.000000 0.000000 18.829049 -47.142048 13.541417 -75.693598 -12.595548 11.703511 50.286209 -8.561338 4.465023 24.706420 -5.196039 -26.077862 -12.201809 0.521933 -1.482143 0.000000 0.000000 0.000000 18.168623 -51.019799 14.216601 -21.034404 -20.232386 -20.324377 52.621864 14.466494 -4.769769 -35.655404 -40.671314 27.317717 6.265585 9.683245 -12.264192 0.000000 0.000000 0.000000 24.795924 -41.960475 12.771045 6.902675 -1.260153 -3.158006 9.444163 1.753819 0.844920 0.092826 -0.246582 0.267637 0.000000 0.000000 0.000000 7.099954 5.670315 0.868924 -7.757466 35.575030 20.174936 -34.456699 -70.969204 -63.058116 0.000000 0.000000 0.000000 15.695963 0.109994 2.576835 0.546552 -8.185586 -11.502606 -18.392631 6.417346 1.830341 -48.383650 -45.593087 -37.462372 137.096390 -74.061271 129.668546 0.000000 0.000000 0.000000 10.247230 2.229585 0.195264 -18.031986 5.998826 2.869822 -36.722119 -21.676920 2.238078 -50.972766 69.417391 65.980959 -50.733293 60.276016 92.738738 0.000000 0.000000 0.000000 
1.223685 26.767887 -48.119431 0.000000 0.000000 0.000000 19.750286 -46.768867 13.875505 -76.899201 -9.857777 10.630578 50.927636 -8.782332 5.230999 23.597650 -5.680839 -26.234582 -11.040424 0.814392 -1.961914 0.000000 0.000000 0.000000 18.738096 -51.180527 14.487028 -22.022897 -20.676340 -19.744028 51.805325 14.062133 -4.431282 -37.909807 -39.697626 26.020821 6.874908 8.482912 -13.065334 0.000000 0.000000 0.000000 25.488844 -42.312421 13.366321 6.935742 -1.062940 -2.690330 9.671687 1.805827 0.718220 0.054442 -0.429680 0.281702 0.000000 0.000000 0.000000 7.218432 5.682008 0.797511 -8.266292 35.528493 20.678447 -28.024497 -69.434419 -57.625807 0.000000 0.000000 0.000000 15.497117 0.127840 2.267296 0.480704 -8.288467 -11.195651 -18.572159 6.367670 1.976635 -48.388957 -44.386742 -36.934805 138.289447 -74.083756 130.643569 0.000000 0.000000 0.000000 10.344522 2.312561 0.134174 -18.116846 4.897235 2.497278 -36.762281 -21.791280 2.635728 -51.772472 71.605436 66.582897 -49.563223 59.635563 92.088107 0.000000 0.000000 0.000000 
1.420148 26.697029 -48.486984 0.000000 0.000000 0.000000 20.868260 -47.531467 14.718339 -77.893923 -7.832764 10.051285 51.642340 -8.594741 6.248253 23.219218 -5.004290 -25.589348 -8.857814 1.193181 -2.731767 0.000000 0.000000 0.000000 19.682162 -51.230623 15.062345 -22.937194 -20.085833 -20.019018 52.363136 13.668975 -4.229291 -40.900699 -39.424470 24.728778 7.408303 7.733200 -13.734622 0.000000 0.000000 0.000000 25.460007 -42.768561 13.677140 6.976489 -0.857175 -2.396146 9.963336 1.854745 0.631957 0.039889 -0.566097 0.269061 0.000000 0.000000 0.000000 7.401751 5.756111 0.695561 -8.739028 35.493812 21.477748 -24.638868 -68.557573 -54.765031 0.000000 0.000000 0.000000 15.480246 0.186995 2.008227 0.407233 -8.145330 -10.837425 -18.569326 6.205427 1.984947 -48.544852 -43.459551 -36.678471 137.705397 -74.296073 129.823591 0.000000 0.000000 0.000000 10.600947 2.461906 0.057648 -18.142683 3.874528 2.074051 -36.938175 -21.756007 2.943976 -51.349055 73.412724 65.913914 -48.573433 58.824772 91.680646 0.000000 0.000000 0.000000 
